<svg id="Layer_1" data-name="Layer 1" xmlns="http://www.w3.org/2000/svg" viewBox="0 0 885 885"><rect x="192.23" y="193.23" width="95.23" height="95.23" transform="translate(383.7 -97) rotate(90)" fill="#fff"/><rect y="190.46" width="95.23" height="504.07" fill="#fff"/><rect x="791.54" y="193.23" width="95.23" height="95.23" transform="translate(983 -696.3) rotate(90)" fill="#fff"/><rect x="192.23" y="792.54" width="95.23" height="95.23" transform="translate(983 502.3) rotate(90)" fill="#fff"/><rect x="791.54" y="792.54" width="95.23" height="95.23" transform="translate(1582.3 -97) rotate(90)" fill="#fff"/><rect x="497.66" y="323.74" width="73.53" height="434.05" transform="translate(978.19 -91.66) rotate(90)" fill="#fff"/><rect x="789.77" y="190.46" width="95.23" height="504.07" fill="#fff"/><rect x="491.88" y="-106.42" width="95.23" height="504.07" transform="translate(296.88 587.12) rotate(-90)" fill="#fff"/><rect x="491.88" y="683.35" width="95.23" height="504.07" transform="translate(-492.88 1376.88) rotate(-90)" fill="#fff"/><rect x="642.2" y="363.46" width="73.53" height="237.41" transform="translate(1403 245.01) rotate(135)" fill="#fff"/><rect x="641.66" y="480.15" width="73.53" height="237.41" transform="translate(525.16 -402.32) rotate(45)" fill="#fff"/></svg>