<svg id="Layer_1" data-name="Layer 1" xmlns="http://www.w3.org/2000/svg" viewBox="0 0 951.38 895.89"><rect x="161.07" width="501.74" height="71.27" fill="#fff"/><rect x="-170.65" y="488.3" width="542.16" height="71.27" transform="translate(-488.3 532.27) rotate(-90)" fill="#fff"/><rect x="57.44" y="161.84" width="226.76" height="71.27" transform="translate(-154.41 86.52) rotate(-45)" fill="#fff"/><rect x="647.65" y="143.31" width="88.66" height="71.27" transform="translate(448.24 778.82) rotate(-90)" fill="#fff"/><rect x="6.96" y="631.64" width="264.24" height="71.27" fill="#fff"/><rect x="268.8" y="632.82" width="286.64" height="71.27" transform="translate(-416.77 395.1) rotate(-45)" fill="#fff"/><rect x="353.37" y="916.73" width="501.74" height="71.27" transform="translate(1143.67 1812.62) rotate(180)" fill="#fff"/><rect x="709.46" y="520.53" width="542.16" height="71.27" transform="translate(1471.91 -516.48) rotate(90)" fill="#fff"/><rect x="796.78" y="846.99" width="226.76" height="71.27" transform="translate(2113.06 771.05) rotate(135)" fill="#fff"/><rect x="344.67" y="865.53" width="88.66" height="71.27" transform="translate(1225.36 420.06) rotate(90)" fill="#fff"/><rect x="744.99" y="285.09" width="264.24" height="71.27" transform="translate(1689.41 549.34) rotate(180)" fill="#fff"/><rect x="525.54" y="376.01" width="286.64" height="71.27" transform="translate(1368.09 137.66) rotate(135)" fill="#fff"/></svg>