<?xml version="1.0" encoding="utf-8"?>
<!-- Generator: Adobe Illustrator 25.4.1, SVG Export Plug-In . SVG Version: 6.00 Build 0)  -->
<svg version="1.1" id="Discord" xmlns="http://www.w3.org/2000/svg" xmlns:xlink="http://www.w3.org/1999/xlink" x="0px" y="0px"
	 viewBox="0 0 24 24" style="enable-background:new 0 0 24 24;" xml:space="preserve">
<style type="text/css">
	.st0{fill:#FFFFFF;}
</style>
<path class="st0" d="M22,11V8h-1V6h-1V5h-2V4h-3v1H9V4H6v1H4v1H3v2H2v3H1v7h2v1h2v1h2v-2H6v-1h2v1h1v1h6v-1h1v-1h2v1h-1v2h2v-1h2v-1
	h2v-7H22z M9,15H7v-1H6v-2h1v-1h2v1h1v2H9V15z M18,14h-1v1h-2v-1h-1v-2h1v-1h2v1h1V14z"/>
</svg>
