<svg id="Layer_1" data-name="Layer 1" xmlns="http://www.w3.org/2000/svg" viewBox="0 0 595.15 990.4"><rect y="0.48" width="70.37" height="989.92"/><rect x="293.15" y="25.38" width="70.37" height="128.81" transform="translate(-25.38 363.52) rotate(-90)"/><rect x="389.75" y="116.5" width="70.37" height="64.4" transform="translate(12.31 519.04) rotate(-90)"/><rect x="537.05" y="89.66" width="70.37" height="230.19" transform="translate(103.55 722.39) rotate(-90)"/><rect x="738.02" y="172.56" width="70.37" height="171.75" transform="translate(250.84 977.03) rotate(-90)"/><rect x="788.71" y="223.24" width="70.37" height="125.23" transform="translate(1383.85 517.12) rotate(180)"/><rect x="729.99" y="348.48" width="70.37" height="76.34" transform="translate(1266.42 718.7) rotate(180)"/><rect x="683.75" y="390.3" width="70.37" height="76.34" transform="translate(1173.94 802.35) rotate(180)"/><rect x="735.03" y="454.71" width="70.37" height="76.34" transform="translate(1276.51 931.17) rotate(180)"/><rect x="788.71" y="521.41" width="70.37" height="113.3" transform="translate(1383.85 1101.53) rotate(180)"/><rect x="736.23" y="511.87" width="70.37" height="175.32" transform="translate(-92.05 1316.35) rotate(-90)"/><rect x="589.53" y="484.44" width="70.37" height="118.08" transform="translate(-182.69 1113.59) rotate(-90)"/><rect x="472.65" y="434.35" width="70.37" height="118.08" transform="translate(-249.48 946.62) rotate(-90)"/><rect x="355.76" y="372.33" width="70.37" height="118.08" transform="translate(-304.35 767.71) rotate(-90)"/></svg>