<svg id="Layer_1" data-name="Layer 1" xmlns="http://www.w3.org/2000/svg" viewBox="0 0 757 799"><rect y="58" width="58" height="509" fill="#fff"/><rect x="699" y="58" width="58" height="509" fill="#fff"/><rect x="512.5" y="-135.5" width="58" height="641" transform="translate(563.5 -512.5) rotate(90)" fill="#fff"/><rect x="282.5" y="662.5" width="58" height="179" transform="translate(900.5 284.5) rotate(90)" fill="#fff"/><rect x="743.5" y="662.5" width="58" height="179" transform="translate(1361.5 -176.5) rotate(90)" fill="#fff"/><rect x="625" y="781" width="58" height="58" transform="translate(1301) rotate(90)" fill="#fff"/><rect x="401" y="781" width="58" height="58" transform="translate(1077 224) rotate(90)" fill="#fff"/><rect x="567" y="839" width="58" height="58" transform="translate(1301 116) rotate(90)" fill="#fff"/><rect x="459" y="839" width="58" height="58" transform="translate(1193 224) rotate(90)" fill="#fff"/><rect x="513" y="897" width="58" height="58" transform="translate(1305 228) rotate(90)" fill="#fff"/><rect x="354" y="312" width="58" height="197" fill="#fff"/><rect x="354" y="159" width="58" height="82" fill="#fff"/></svg>