<?xml version="1.0" encoding="utf-8"?>
<!-- Generator: Adobe Illustrator 25.4.1, SVG Export Plug-In . SVG Version: 6.00 Build 0)  -->
<svg version="1.1" id="Instagram" xmlns="http://www.w3.org/2000/svg" xmlns:xlink="http://www.w3.org/1999/xlink" x="0px" y="0px"
	 viewBox="0 0 24 24" style="enable-background:new 0 0 24 24;" xml:space="preserve">
<style type="text/css">
	.st0{fill:#FFFFFF;}
</style>
<path class="st0" d="M17,9V8h-1V7h-1V6H9v1H8v1H7v1H6v6h1v1h1v1h1v1h6v-1h1v-1h1v-1h1V9H17z M16,14h-1v1h-1v1h-4v-1H9v-1H8v-4h1V9h1
	V8h4v1h1v1h1V14z"/>
<path class="st0" d="M22,5V3h-1V2h-2V1H5v1H3v1H2v2H1v14h1v2h1v1h2v1h14v-1h2v-1h1v-2h1V5H22z M21,19h-1v1h-1v1H5v-1H4v-1H3V5h1V4h1
	V3h14v1h1v1h1V19z"/>
<rect x="17" y="5" class="st0" width="2" height="2"/>
</svg>
