<?xml version="1.0" encoding="utf-8"?>
<!-- Generator: Adobe Illustrator 25.4.1, SVG Export Plug-In . SVG Version: 6.00 Build 0)  -->
<svg version="1.1" id="X.ai_copy" xmlns="http://www.w3.org/2000/svg" xmlns:xlink="http://www.w3.org/1999/xlink" x="0px" y="0px"
	 viewBox="0 0 24 24" style="enable-background:new 0 0 24 24;" xml:space="preserve">
<style type="text/css">
	.st0{fill:#FFFFFF;}
</style>
<path class="st0" d="M15.5,10V9h1V8h1V7h1V6h1V5h1V4h1V3h1V2h-3v1h-1v1h-1v1h-1v1h-1v1h-1v1h-2V7h-1V6h-1V4h-1V3h-1V2h-7v1h1v1h1v1
	h1v2h1v1h1v2h1v1h1v2h1v1h-1v1h-1v1h-1v1h-1v1h-1v1h-1v1h-1v1h-1v1h3v-1h1v-1h1v-1h1v-1h1v-1h1v-1h2v1h1v1h1v2h1v1h1v1h7v-1h-1v-1
	h-1v-1h-1v-2h-1v-1h-1v-2h-1v-1h-1v-2h-1v-1H15.5z M15.5,14v1h1v2h1v1h1v2h-3v-2h-1v-1h-1v-1h-1v-2h-1v-1h-1v-1h-1v-2h-1V9h-1V7h-1
	V6h-1V4h3v1h1v2h1v1h1v2h1v1h1v1h1v2H15.5z"/>
</svg>
